<?xml version="1.0" standalone="no"?>
<!DOCTYPE svg PUBLIC "-//W3C//DTD SVG 20010904//EN"
 "http://www.w3.org/TR/2001/REC-SVG-20010904/DTD/svg10.dtd">
<svg version="1.0" xmlns="http://www.w3.org/2000/svg"
 width="1500.000000pt" height="1500.000000pt" viewBox="0 0 1500.000000 1500.000000"
 preserveAspectRatio="xMidYMid meet">
<metadata>
Created by potrace 1.10, written by Peter Selinger 2001-2011
</metadata>
<g transform="translate(0.000000,1500.000000) scale(0.100000,-0.100000)"
fill="#000000" stroke="none">
<path d="M3053 9469 c-10 -10 -13 -142 -13 -591 l0 -579 123 3 122 3 5 220 5
220 57 3 c68 4 58 15 226 -254 l118 -189 132 -3 c95 -2 132 1 132 9 0 6 -35
64 -79 128 -202 299 -239 356 -234 367 2 6 26 26 53 43 56 36 113 109 135 171
8 23 15 72 15 107 0 174 -86 280 -265 328 -83 22 -514 34 -532 14z m464 -223
c58 -30 76 -61 77 -129 1 -113 -57 -158 -210 -160 l-89 -2 -3 145 c-1 79 0
151 3 159 5 11 23 13 100 8 52 -4 107 -13 122 -21z"/>
<path d="M4158 9473 c-10 -2 -20 -18 -23 -36 -3 -18 -4 -279 -3 -582 l3 -550
340 0 340 0 3 75 c5 130 23 120 -206 120 -108 0 -203 4 -210 8 -9 7 -12 44
-10 153 l3 144 195 5 195 5 3 83 c2 53 -1 89 -9 98 -9 11 -49 14 -188 14 -124
0 -181 4 -189 12 -8 8 -12 50 -12 124 0 93 3 113 16 118 9 3 103 6 209 6 167
0 194 2 199 16 3 9 6 51 6 94 0 68 -3 81 -19 90 -19 10 -606 13 -643 3z"/>
<path d="M4937 9467 c-19 -13 -19 -12 183 -607 22 -63 73 -214 114 -335 l74
-220 132 -3 c81 -1 137 1 144 8 10 10 10 9 170 480 59 173 126 369 148 435 75
220 80 236 73 243 -4 4 -53 9 -109 10 -122 4 -133 -2 -160 -93 -10 -33 -24
-76 -31 -95 -12 -31 -46 -139 -135 -425 -40 -126 -60 -200 -60 -218 0 -9 -4
-27 -10 -41 -13 -36 -38 -23 -45 22 -4 21 -13 55 -21 77 -8 23 -14 48 -14 57
0 10 -6 32 -14 50 -8 18 -35 98 -59 178 -25 80 -66 210 -90 290 -25 80 -48
155 -51 166 -4 12 -17 25 -29 28 -42 11 -193 6 -210 -7z"/>
<path d="M6448 9466 c-8 -8 -20 -29 -27 -48 -7 -18 -19 -49 -26 -68 -8 -19
-55 -147 -105 -285 -50 -137 -97 -263 -105 -280 -34 -74 -174 -469 -169 -476
3 -5 52 -9 109 -9 l104 0 21 58 c12 31 46 125 76 207 30 83 62 167 70 188 20
53 44 116 60 160 8 20 20 54 28 75 66 172 86 223 99 262 9 25 26 70 38 100 12
30 22 71 23 90 l1 35 -91 3 c-70 2 -95 -1 -106 -12z"/>
<path d="M7120 9415 c-16 -19 -39 -84 -255 -725 -59 -173 -111 -322 -116 -332
-7 -13 -4 -20 10 -28 22 -11 190 -14 207 -2 6 4 20 32 29 62 10 30 24 71 30
90 28 78 129 403 179 571 9 31 16 67 16 80 0 13 4 31 10 39 7 12 10 11 16 -5
4 -11 13 -35 20 -54 8 -18 14 -41 14 -49 0 -9 27 -100 59 -202 117 -366 151
-477 151 -488 0 -7 9 -21 20 -32 17 -17 33 -20 104 -20 96 0 116 5 116 29 0
10 -36 123 -79 252 -86 253 -97 286 -116 339 -7 19 -18 51 -24 70 -7 19 -39
116 -72 214 -32 98 -64 185 -70 192 -17 21 -232 20 -249 -1z"/>
<path d="M7852 9418 c-16 -16 -16 -149 1 -171 10 -14 37 -17 197 -19 l185 -3
0 -135 0 -135 -169 -3 c-104 -1 -175 -7 -183 -13 -17 -15 -18 -160 -1 -177 8
-8 64 -12 185 -12 l173 0 0 -115 c0 -63 -1 -116 -2 -117 -2 -1 -91 -4 -198 -7
l-195 -6 -3 -78 c-2 -50 1 -84 9 -93 9 -11 64 -14 295 -14 159 0 294 4 308 10
l26 10 0 533 c0 401 -3 536 -12 545 -9 9 -91 12 -308 12 -217 0 -299 -3 -308
-12z"/>
<path d="M8633 9415 c-3 -9 1 -23 9 -33 43 -49 278 -412 278 -429 0 -11 -10
-25 -24 -31 -39 -17 -95 -72 -122 -118 -32 -54 -43 -124 -33 -207 20 -164 126
-248 339 -268 133 -12 377 -11 401 1 18 10 19 27 19 543 0 401 -3 536 -12 545
-16 16 -200 16 -216 0 -8 -8 -12 -68 -12 -203 0 -135 -4 -195 -12 -203 -16
-16 -89 -15 -108 1 -9 7 -32 37 -51 67 -44 68 -170 272 -186 302 -23 42 -42
48 -155 48 -89 0 -110 -3 -115 -15z m625 -752 l3 -142 -27 -7 c-35 -9 -132 2
-174 20 -54 22 -78 51 -85 100 -18 117 53 178 200 173 l80 -2 3 -142z"/>
</g>
</svg>
